<svg width="180" height="180" viewBox="0 0 180 180" fill="none" xmlns="http://www.w3.org/2000/svg">
  <!-- Apple icon - 180x180 - Community theme -->
  <defs>
    <linearGradient id="appleCommunityGradient" x1="0%" y1="0%" x2="0%" y2="100%">
      <stop offset="0%" style="stop-color:#B82D4F;stop-opacity:1" />
      <stop offset="100%" style="stop-color:#8B1538;stop-opacity:1" />
    </linearGradient>
  </defs>
  
  <rect width="180" height="180" rx="40" fill="#1A0509"/>
  
  <g transform="translate(90, 90)">
    <!-- Center circle representing unity -->
    <circle cx="0" cy="0" r="22" fill="url(#appleCommunityGradient)"/>
    <circle cx="0" cy="0" r="18" fill="#C53A56"/>
    
    <!-- Top person -->
    <circle cx="0" cy="-50" r="16" fill="url(#appleCommunityGradient)"/>
    <path d="M0 -34 L0 -22" stroke="url(#appleCommunityGradient)" stroke-width="8" stroke-linecap="round"/>
    
    <!-- Top-right person -->
    <circle cx="35" cy="-35" r="13" fill="url(#appleCommunityGradient)"/>
    <path d="M30 -25 L15 -15" stroke="url(#appleCommunityGradient)" stroke-width="6" stroke-linecap="round"/>
    
    <!-- Right person -->
    <circle cx="50" cy="0" r="13" fill="url(#appleCommunityGradient)"/>
    <path d="M37 0 L22 0" stroke="url(#appleCommunityGradient)" stroke-width="6" stroke-linecap="round"/>
    
    <!-- Bottom-right person -->
    <circle cx="35" cy="35" r="13" fill="url(#appleCommunityGradient)"/>
    <path d="M30 25 L15 15" stroke="url(#appleCommunityGradient)" stroke-width="6" stroke-linecap="round"/>
    
    <!-- Bottom person -->
    <circle cx="0" cy="50" r="16" fill="url(#appleCommunityGradient)"/>
    <path d="M0 34 L0 22" stroke="url(#appleCommunityGradient)" stroke-width="8" stroke-linecap="round"/>
    
    <!-- Bottom-left person -->
    <circle cx="-35" cy="35" r="13" fill="url(#appleCommunityGradient)"/>
    <path d="M-30 25 L-15 15" stroke="url(#appleCommunityGradient)" stroke-width="6" stroke-linecap="round"/>
    
    <!-- Left person -->
    <circle cx="-50" cy="0" r="13" fill="url(#appleCommunityGradient)"/>
    <path d="M-37 0 L-22 0" stroke="url(#appleCommunityGradient)" stroke-width="6" stroke-linecap="round"/>
    
    <!-- Top-left person -->
    <circle cx="-35" cy="-35" r="13" fill="url(#appleCommunityGradient)"/>
    <path d="M-30 -25 L-15 -15" stroke="url(#appleCommunityGradient)" stroke-width="6" stroke-linecap="round"/>
    
    <!-- Add highlights for depth -->
    <circle cx="0" cy="-52" r="5" fill="white" opacity="0.4"/>
    <circle cx="0" cy="-5" r="8" fill="white" opacity="0.3"/>
    
    <!-- Connection ring overlay for extra community feel -->
    <circle cx="0" cy="0" r="38" stroke="#E5526E" stroke-width="2" fill="none" opacity="0.3"/>
  </g>
</svg>
