<svg width="400" height="400" viewBox="0 0 400 400" fill="none" xmlns="http://www.w3.org/2000/svg">
  <!-- Subtle heart pattern for mental health theme -->
  <defs>
    <pattern id="hearts" x="0" y="0" width="100" height="100" patternUnits="userSpaceOnUse">
      <!-- Small hearts -->
      <path d="M 50 35 C 50 30 45 27 42 27 C 38 27 35 30 35 34 C 35 30 32 27 28 27 C 25 27 20 30 20 35 C 20 42 35 50 35 50 C 35 50 50 42 50 35 Z" 
            fill="currentColor" opacity="0.06"/>
      
      <path d="M 90 75 C 90 72 87 70 85 70 C 83 70 81 72 81 74 C 81 72 79 70 77 70 C 75 70 72 72 72 75 C 72 79 81 85 81 85 C 81 85 90 79 90 75 Z" 
            fill="currentColor" opacity="0.04"/>
    </pattern>
  </defs>
  
  <rect width="400" height="400" fill="url(#hearts)"/>
</svg>


