<svg width="32" height="32" viewBox="0 0 32 32" fill="none" xmlns="http://www.w3.org/2000/svg">
  <!-- Community icon optimized for light backgrounds -->
  <g>
    <!-- Center circle representing unity -->
    <circle cx="16" cy="16" r="4" fill="#8B1538"/>
    
    <!-- Top person -->
    <circle cx="16" cy="6" r="3" fill="#A02142"/>
    <path d="M16 9 L16 12" stroke="#A02142" stroke-width="1.5" stroke-linecap="round"/>
    
    <!-- Top-right person -->
    <circle cx="23.5" cy="9.5" r="2.5" fill="#A02142"/>
    <path d="M22.5 11.5 L18 14" stroke="#A02142" stroke-width="1.3" stroke-linecap="round"/>
    
    <!-- Right person -->
    <circle cx="26" cy="16" r="2.5" fill="#A02142"/>
    <path d="M23.5 16 L20 16" stroke="#A02142" stroke-width="1.3" stroke-linecap="round"/>
    
    <!-- Bottom-right person -->
    <circle cx="23.5" cy="22.5" r="2.5" fill="#A02142"/>
    <path d="M22.5 20.5 L18 18" stroke="#A02142" stroke-width="1.3" stroke-linecap="round"/>
    
    <!-- Bottom person -->
    <circle cx="16" cy="26" r="3" fill="#A02142"/>
    <path d="M16 23 L16 20" stroke="#A02142" stroke-width="1.5" stroke-linecap="round"/>
    
    <!-- Bottom-left person -->
    <circle cx="8.5" cy="22.5" r="2.5" fill="#A02142"/>
    <path d="M9.5 20.5 L14 18" stroke="#A02142" stroke-width="1.3" stroke-linecap="round"/>
    
    <!-- Left person -->
    <circle cx="6" cy="16" r="2.5" fill="#A02142"/>
    <path d="M8.5 16 L12 16" stroke="#A02142" stroke-width="1.3" stroke-linecap="round"/>
    
    <!-- Top-left person -->
    <circle cx="8.5" cy="9.5" r="2.5" fill="#A02142"/>
    <path d="M9.5 11.5 L14 14" stroke="#A02142" stroke-width="1.3" stroke-linecap="round"/>
    
    <!-- Add subtle highlights -->
    <circle cx="16" cy="5" r="1" fill="white" opacity="0.4"/>
    <circle cx="16" cy="15" r="1.5" fill="white" opacity="0.3"/>
  </g>
</svg>
